<svg width="640" height="604" viewBox="0 0 640 604" fill="none" xmlns="http://www.w3.org/2000/svg">
<path d="M640 276.848C640 258.875 603.182 253.033 550.118 244.055C487.544 233.46 483.763 217.649 483.763 217.649C483.763 217.649 471.942 206.46 494.049 146.997C512.805 96.5617 526.145 61.805 510.559 52.794C493.157 42.6937 477.225 59.7421 467.385 84.0189C454.292 116.366 425.581 192.811 423.517 212.005C422.852 218.94 422.902 225.924 423.666 232.849C424.261 238.627 426.07 244.215 428.975 249.246C431.88 254.277 435.815 258.638 440.523 262.044C446.14 266.164 452.164 269.698 458.502 272.59C476.152 280.396 556.755 293.764 591.328 298.6C617.298 302.23 640.05 296.949 640 276.848Z" fill="#C8A8E9"/>
<path d="M546.172 224.465C569.843 224.465 589.033 205.283 589.033 181.622C589.033 157.96 569.843 138.778 546.172 138.778C522.501 138.778 503.311 157.96 503.311 181.622C503.311 205.283 522.501 224.465 546.172 224.465Z" fill="#C8A8E9"/>
<path d="M508.628 564.606C524.18 555.578 510.84 520.838 492.117 470.403C470.01 410.99 481.831 399.751 481.831 399.751C481.831 399.751 485.612 383.94 548.186 373.345C601.25 364.367 638.035 358.491 638.068 340.552C638.068 320.45 615.367 315.169 589.429 318.8C554.856 323.636 474.27 336.954 456.604 344.81C450.268 347.706 444.243 351.239 438.624 355.356C433.922 358.767 429.99 363.129 427.086 368.159C424.182 373.189 422.37 378.774 421.767 384.551C421.003 391.475 420.953 398.46 421.618 405.395C423.682 424.589 452.394 501.116 465.486 533.381C475.293 557.658 491.226 574.706 508.628 564.606Z" fill="#C8A8E9"/>
<path d="M544.207 478.622C567.879 478.622 587.068 459.44 587.068 435.778C587.068 412.116 567.879 392.935 544.207 392.935C520.536 392.935 501.347 412.116 501.347 435.778C501.347 459.44 520.536 478.622 544.207 478.622Z" fill="#C8A8E9"/>
<path d="M193.628 594.758C209.23 603.719 232.658 574.789 266.983 533.348C307.45 484.464 323.118 489.101 323.118 489.101C323.118 489.101 338.72 484.464 379.253 533.348C413.561 574.789 437.039 603.719 452.608 594.758C470.043 584.74 463.241 562.427 447.127 541.781C425.663 514.27 373.771 451.176 358.169 439.805C352.493 435.751 346.405 432.305 340.008 429.523C334.703 427.149 328.955 425.922 323.143 425.922C317.33 425.922 311.583 427.149 306.277 429.523C299.882 432.309 293.795 435.755 288.116 439.805C272.514 451.176 220.655 514.27 199.175 541.781C182.995 562.427 176.193 584.74 193.628 594.758Z" fill="#C8A8E9"/>
<path d="M323.035 604C346.707 604 365.896 584.818 365.896 561.156C365.896 537.495 346.707 518.313 323.035 518.313C299.364 518.313 280.175 537.495 280.175 561.156C280.175 584.818 299.364 604 323.035 604Z" fill="#C8A8E9"/>
<path d="M10 337.152C10 355.125 46.8345 360.967 99.8821 369.945C162.473 380.54 166.254 396.351 166.254 396.351C166.254 396.351 178.058 407.54 155.951 467.003C137.195 517.438 123.855 552.195 139.441 561.206C156.826 571.306 172.775 554.258 182.599 529.981C195.691 497.634 224.419 421.189 226.467 401.995C227.148 395.061 227.098 388.075 226.318 381.151C225.723 375.373 223.913 369.785 221.008 364.754C218.103 359.723 214.168 355.362 209.461 351.956C203.844 347.836 197.819 344.302 191.481 341.41C173.832 333.604 93.2285 320.236 58.6724 315.4C32.7017 311.77 9.96702 317.051 10 337.152Z" fill="#C8A8E9"/>
<path d="M103.812 475.222C127.483 475.222 146.672 456.04 146.672 432.378C146.672 408.716 127.483 389.535 103.812 389.535C80.1403 389.535 60.9508 408.716 60.9508 432.378C60.9508 456.04 80.1403 475.222 103.812 475.222Z" fill="#C8A8E9"/>
<path d="M141.389 49.3942C125.82 58.4217 139.16 93.162 157.899 143.597C180.007 203.01 168.202 214.249 168.202 214.249C168.202 214.249 164.421 230.06 101.83 240.655C48.7662 249.633 11.9978 255.509 11.9483 273.448C11.9483 293.549 34.6499 298.831 60.6041 295.2C95.1602 290.364 175.764 277.046 193.413 269.19C199.751 266.298 205.776 262.764 211.393 258.644C216.1 255.238 220.035 250.877 222.94 245.846C225.845 240.815 227.654 235.228 228.25 229.449C229.03 222.526 229.08 215.539 228.398 208.605C226.351 189.411 197.623 112.966 184.53 80.6192C174.723 56.3423 158.807 39.294 141.389 49.3942Z" fill="#C8A8E9"/>
<path d="M105.776 221.065C129.448 221.065 148.637 201.884 148.637 178.222C148.637 154.56 129.448 135.378 105.776 135.378C82.105 135.378 62.9156 154.56 62.9156 178.222C62.9156 201.884 82.105 221.065 105.776 221.065Z" fill="#C8A8E9"/>
<path d="M456.372 19.2421C440.787 10.2806 417.342 39.2115 383.034 80.6522C342.567 129.536 326.899 124.899 326.899 124.899C326.899 124.899 311.296 129.536 270.764 80.6522C236.455 39.2115 212.978 10.2806 197.425 19.2421C179.99 29.2598 186.776 51.5728 202.906 72.2188C224.37 99.7305 276.245 162.824 291.847 174.195C297.525 178.248 303.612 181.694 310.009 184.477C315.314 186.851 321.061 188.078 326.874 188.078C332.687 188.078 338.434 186.851 343.739 184.477C350.135 181.691 356.222 178.245 361.901 174.195C377.503 162.824 429.378 99.7305 450.842 72.2188C467.022 51.5728 473.824 29.2598 456.372 19.2421Z" fill="#C8A8E9"/>
<path d="M326.965 95.687C350.636 95.687 369.826 76.5053 369.826 52.8435C369.826 29.1817 350.636 10 326.965 10C303.293 10 284.104 29.1817 284.104 52.8435C284.104 76.5053 303.293 95.687 326.965 95.687Z" fill="#C8A8E9"/>
<path d="M630 266.848C630 248.875 593.182 243.033 540.118 234.055C477.544 223.46 473.763 207.649 473.763 207.649C473.763 207.649 461.942 196.46 484.049 136.997C502.805 86.5617 516.145 51.805 500.559 42.794C483.157 32.6937 467.225 49.7421 457.385 74.0189C444.292 106.366 415.581 182.811 413.517 202.005C412.852 208.94 412.902 215.924 413.666 222.849C414.261 228.627 416.07 234.215 418.975 239.246C421.88 244.277 425.815 248.638 430.523 252.044C436.14 256.164 442.164 259.698 448.502 262.59C466.152 270.396 546.755 283.764 581.328 288.6C607.298 292.23 630.05 286.949 630 266.848Z" fill="#F5BCBA"/>
<path d="M536.172 214.465C559.843 214.465 579.033 195.283 579.033 171.622C579.033 147.96 559.843 128.778 536.172 128.778C512.501 128.778 493.311 147.96 493.311 171.622C493.311 195.283 512.501 214.465 536.172 214.465Z" fill="#F5BCBA"/>
<path d="M498.628 554.606C514.18 545.578 500.84 510.838 482.117 460.403C460.01 400.99 471.831 389.751 471.831 389.751C471.831 389.751 475.612 373.94 538.186 363.345C591.25 354.367 628.035 348.491 628.068 330.552C628.068 310.45 605.367 305.169 579.429 308.8C544.856 313.636 464.27 326.954 446.604 334.81C440.268 337.706 434.243 341.239 428.624 345.356C423.922 348.767 419.99 353.129 417.086 358.159C414.182 363.189 412.37 368.774 411.767 374.551C411.003 381.475 410.953 388.46 411.618 395.395C413.682 414.589 442.394 491.116 455.486 523.381C465.293 547.658 481.226 564.706 498.628 554.606Z" fill="#F5BCBA"/>
<path d="M534.207 468.622C557.879 468.622 577.068 449.44 577.068 425.778C577.068 402.116 557.879 382.935 534.207 382.935C510.536 382.935 491.347 402.116 491.347 425.778C491.347 449.44 510.536 468.622 534.207 468.622Z" fill="#F5BCBA"/>
<path d="M183.628 584.758C199.23 593.719 222.658 564.789 256.983 523.348C297.45 474.464 313.118 479.101 313.118 479.101C313.118 479.101 328.72 474.464 369.253 523.348C403.561 564.789 427.039 593.719 442.608 584.758C460.043 574.74 453.241 552.427 437.127 531.781C415.663 504.27 363.771 441.176 348.169 429.805C342.493 425.751 336.405 422.305 330.008 419.523C324.703 417.149 318.955 415.922 313.143 415.922C307.33 415.922 301.583 417.149 296.277 419.523C289.882 422.309 283.795 425.755 278.116 429.805C262.514 441.176 210.655 504.27 189.175 531.781C172.995 552.427 166.193 574.74 183.628 584.758Z" fill="#F5BCBA"/>
<path d="M313.035 594C336.707 594 355.896 574.818 355.896 551.156C355.896 527.495 336.707 508.313 313.035 508.313C289.364 508.313 270.175 527.495 270.175 551.156C270.175 574.818 289.364 594 313.035 594Z" fill="#F5BCBA"/>
<path d="M3.59254e-05 327.152C3.59254e-05 345.125 36.8345 350.967 89.8821 359.945C152.473 370.54 156.254 386.351 156.254 386.351C156.254 386.351 168.058 397.54 145.951 457.003C127.195 507.438 113.855 542.195 129.441 551.206C146.826 561.306 162.775 544.258 172.599 519.981C185.691 487.634 214.419 411.189 216.467 391.995C217.148 385.061 217.098 378.075 216.318 371.151C215.723 365.373 213.913 359.785 211.008 354.754C208.103 349.723 204.168 345.362 199.461 341.956C193.844 337.836 187.819 334.302 181.481 331.41C163.832 323.604 83.2285 310.236 48.6724 305.4C22.7017 301.77 -0.0329847 307.051 3.59254e-05 327.152Z" fill="#F5BCBA"/>
<path d="M93.8116 465.222C117.483 465.222 136.672 446.04 136.672 422.378C136.672 398.716 117.483 379.535 93.8116 379.535C70.1403 379.535 50.9508 398.716 50.9508 422.378C50.9508 446.04 70.1403 465.222 93.8116 465.222Z" fill="#F5BCBA"/>
<path d="M131.389 39.3942C115.82 48.4217 129.16 83.162 147.899 133.597C170.007 193.01 158.202 204.249 158.202 204.249C158.202 204.249 154.421 220.06 91.8303 230.655C38.7662 239.633 1.99778 245.509 1.94825 263.448C1.94825 283.549 24.6499 288.831 50.6041 285.2C85.1602 280.364 165.764 267.046 183.413 259.19C189.751 256.298 195.776 252.764 201.393 248.644C206.1 245.238 210.035 240.877 212.94 235.846C215.845 230.815 217.654 225.228 218.25 219.449C219.03 212.526 219.08 205.539 218.398 198.605C216.351 179.411 187.623 102.966 174.53 70.6192C164.723 46.3423 148.807 29.294 131.389 39.3942Z" fill="#F5BCBA"/>
<path d="M95.7763 211.065C119.448 211.065 138.637 191.884 138.637 168.222C138.637 144.56 119.448 125.378 95.7763 125.378C72.105 125.378 52.9156 144.56 52.9156 168.222C52.9156 191.884 72.105 211.065 95.7763 211.065Z" fill="#F5BCBA"/>
<path d="M446.372 9.24207C430.787 0.280576 407.342 29.2115 373.034 70.6522C332.567 119.536 316.899 114.899 316.899 114.899C316.899 114.899 301.296 119.536 260.764 70.6522C226.455 29.2115 202.978 0.280576 187.425 9.24207C169.99 19.2598 176.776 41.5728 192.906 62.2188C214.37 89.7305 266.245 152.824 281.847 164.195C287.525 168.248 293.612 171.694 300.009 174.477C305.314 176.851 311.061 178.078 316.874 178.078C322.687 178.078 328.434 176.851 333.739 174.477C340.135 171.691 346.222 168.245 351.901 164.195C367.503 152.824 419.378 89.7305 440.842 62.2188C457.022 41.5728 463.824 19.2598 446.372 9.24207Z" fill="#F5BCBA"/>
<path d="M316.965 85.687C340.636 85.687 359.826 66.5053 359.826 42.8435C359.826 19.1817 340.636 0 316.965 0C293.293 0 274.104 19.1817 274.104 42.8435C274.104 66.5053 293.293 85.687 316.965 85.687Z" fill="#F5BCBA"/>
</svg>
